<svg preserveAspectRatio="none" width="100%" height="100%" overflow="visible" style="display: block;" viewBox="0 0 12 12" fill="none" xmlns="http://www.w3.org/2000/svg">
<path id="Shape" d="M6 0C9.31371 0 12 2.68629 12 6C12 7.67717 10.8661 9 9.5 9C8.74804 9 8.21549 8.64461 7.88999 8.01456C7.45625 8.6143 6.80559 9 6 9C4.47091 9 3.5 7.61043 3.5 6C3.5 4.38957 4.47091 3 6 3C6.59194 3 7.10023 3.20824 7.50092 3.55692L7.5 3.5C7.5 3.22386 7.72386 3 8 3C8.24546 3 8.44961 3.17688 8.49194 3.41012L8.5 3.5V6C8.5 7.36284 8.85339 8 9.5 8C10.2767 8 11 7.15616 11 6C11 3.23858 8.76142 1 6 1C3.23858 1 1 3.23858 1 6C1 8.76142 3.23858 11 6 11C6.41606 11 6.82489 10.9493 7.22017 10.8502L7.51399 10.7668L7.71905 10.6968C7.97836 10.6019 8.26553 10.7351 8.36047 10.9944C8.45541 11.2537 8.32216 11.5409 8.06285 11.6358C7.98137 11.6657 7.89921 11.6937 7.81642 11.72C7.23377 11.9049 6.623 12 6 12C2.68629 12 0 9.31371 0 6C0 2.68629 2.68629 0 6 0ZM6 4C5.11564 4 4.5 4.8811 4.5 6C4.5 7.1189 5.11564 8 6 8C6.88436 8 7.5 7.1189 7.5 6C7.5 4.8811 6.88436 4 6 4Z" fill="var(--fill-0, #CC4A31)"/>
</svg>
